<svg width="36" height="35" viewBox="0 0 36 35" fill="none" xmlns="http://www.w3.org/2000/svg">
<g clip-path="url(#clip0_497_2778)">
<g filter="url(#filter0_d_497_2778)">
<path d="M18.0002 2.91516C18.7737 2.91516 19.5156 3.22245 20.0626 3.76943C20.6095 4.31641 20.9168 5.05828 20.9168 5.83183C20.9168 6.60538 20.6095 7.34724 20.0626 7.89422C19.5156 8.4412 18.7737 8.74849 18.0002 8.74849C17.2266 8.74849 16.4847 8.4412 15.9378 7.89422C15.3908 7.34724 15.0835 6.60538 15.0835 5.83183C15.0835 5.05828 15.3908 4.31641 15.9378 3.76943C16.4847 3.22245 17.2266 2.91516 18.0002 2.91516ZM15.8127 10.2068H20.1877C20.9612 10.2068 21.7031 10.5141 22.2501 11.0611C22.797 11.6081 23.1043 12.3499 23.1043 13.1235V21.1443H20.9168V32.0818H15.0835V21.1443H12.896V13.1235C12.896 12.3499 13.2033 11.6081 13.7503 11.0611C14.2972 10.5141 15.0391 10.2068 15.8127 10.2068Z" fill="#FFB10C"/>
</g>
</g>
<defs>
<filter id="filter0_d_497_2778" x="10.896" y="1.91516" width="14.2085" height="33.1666" filterUnits="userSpaceOnUse" color-interpolation-filters="sRGB">
<feFlood flood-opacity="0" result="BackgroundImageFix"/>
<feColorMatrix in="SourceAlpha" type="matrix" values="0 0 0 0 0 0 0 0 0 0 0 0 0 0 0 0 0 0 127 0" result="hardAlpha"/>
<feOffset dy="1"/>
<feGaussianBlur stdDeviation="1"/>
<feComposite in2="hardAlpha" operator="out"/>
<feColorMatrix type="matrix" values="0 0 0 0 0 0 0 0 0 0 0 0 0 0 0 0 0 0 0.25 0"/>
<feBlend mode="normal" in2="BackgroundImageFix" result="effect1_dropShadow_497_2778"/>
<feBlend mode="normal" in="SourceGraphic" in2="effect1_dropShadow_497_2778" result="shape"/>
</filter>
<clipPath id="clip0_497_2778">
<rect width="35" height="35" fill="white" transform="translate(0.5)"/>
</clipPath>
</defs>
</svg>
