<svg width="30" height="32" viewBox="0 0 30 32" fill="none" xmlns="http://www.w3.org/2000/svg">
  <g clip-path="url(#clip0_529_3608)">
    <path fill-rule="evenodd" clip-rule="evenodd" d="M10.2499 2.49982C10.2499 1.24982 11.2499 0.249817 12.4999 0.249817C13.7499 0.249817 14.7499 1.24982 14.7499 2.49982C14.7499 3.74982 13.7499 4.74982 12.4999 4.74982C11.2499 4.74982 10.2499 3.74982 10.2499 2.49982ZM9.27488 5.13732C9.47488 5.07482 9.68738 5.03732 9.89988 5.03732C10.6749 5.03732 11.3499 5.46232 11.7249 6.08732L14.2249 10.2498H18.7499V12.4998H12.6499L11.2999 10.2248L10.3874 13.8123L13.4999 19.4873V27.4998H11.2499V21.2498L8.33738 17.3623L4.74988 27.4998H2.49988L7.38738 8.33732L4.74988 9.16232V13.7498H2.49988V7.24982L9.27488 5.13732Z" fill="black"/>
  </g>
  <defs>
    <clipPath id="clip0_529_3608">
      <rect width="30" height="30" fill="white"/>
    </clipPath>
  </defs>
</svg>
